<svg xmlns="http://www.w3.org/2000/svg" xmlns:xlink="http://www.w3.org/1999/xlink" width="55" zoomAndPan="magnify" viewBox="0 0 41.25 41.250001" height="55" preserveAspectRatio="xMidYMid meet" version="1.0"><defs><clipPath id="bc2b5ed609"><path d="M 0 0 L 40.511719 0 L 40.511719 40.511719 L 0 40.511719 Z M 0 0 " clip-rule="nonzero"/></clipPath></defs><g clip-path="url(#bc2b5ed609)"><path fill="#f1f1f1" d="M 40.457031 2.023438 L 40.457031 14.160156 C 40.457031 14.429688 40.40625 14.6875 40.300781 14.933594 C 40.199219 15.179688 40.054688 15.398438 39.863281 15.589844 C 39.671875 15.78125 39.453125 15.925781 39.207031 16.027344 C 38.960938 16.132812 38.703125 16.183594 38.433594 16.183594 L 24.273438 16.183594 C 24.003906 16.183594 23.746094 16.132812 23.5 16.027344 C 23.25 15.925781 23.03125 15.78125 22.84375 15.589844 C 22.652344 15.398438 22.507812 15.179688 22.40625 14.933594 C 22.300781 14.6875 22.25 14.429688 22.25 14.160156 L 22.25 2.023438 C 22.25 1.753906 22.300781 1.496094 22.40625 1.25 C 22.507812 1 22.652344 0.78125 22.84375 0.59375 C 23.03125 0.402344 23.25 0.257812 23.5 0.152344 C 23.746094 0.0507812 24.003906 0 24.273438 0 L 38.433594 0 C 38.703125 0 38.960938 0.0507812 39.207031 0.152344 C 39.453125 0.257812 39.671875 0.402344 39.863281 0.59375 C 40.054688 0.78125 40.199219 1 40.300781 1.25 C 40.40625 1.496094 40.457031 1.753906 40.457031 2.023438 Z M 16.183594 24.273438 L 2.023438 24.273438 C 1.753906 24.273438 1.496094 24.324219 1.25 24.425781 C 1 24.53125 0.78125 24.675781 0.59375 24.867188 C 0.402344 25.054688 0.257812 25.273438 0.152344 25.523438 C 0.0507812 25.769531 0 26.027344 0 26.296875 L 0 38.433594 C 0 38.703125 0.0507812 38.960938 0.152344 39.207031 C 0.257812 39.453125 0.402344 39.671875 0.59375 39.863281 C 0.78125 40.054688 1 40.199219 1.25 40.300781 C 1.496094 40.40625 1.753906 40.457031 2.023438 40.457031 L 16.183594 40.457031 C 16.449219 40.457031 16.707031 40.40625 16.957031 40.300781 C 17.203125 40.199219 17.421875 40.054688 17.613281 39.863281 C 17.800781 39.671875 17.949219 39.453125 18.050781 39.207031 C 18.152344 38.960938 18.207031 38.703125 18.207031 38.433594 L 18.207031 26.296875 C 18.207031 26.027344 18.152344 25.769531 18.050781 25.523438 C 17.949219 25.273438 17.800781 25.054688 17.613281 24.867188 C 17.421875 24.675781 17.203125 24.53125 16.957031 24.425781 C 16.707031 24.324219 16.449219 24.273438 16.183594 24.273438 Z M 16.183594 0 L 2.023438 0 C 1.753906 0 1.496094 0.0507812 1.25 0.152344 C 1 0.257812 0.78125 0.402344 0.59375 0.59375 C 0.402344 0.78125 0.257812 1 0.152344 1.25 C 0.0507812 1.496094 0 1.753906 0 2.023438 L 0 18.207031 C 0 18.472656 0.0507812 18.730469 0.152344 18.980469 C 0.257812 19.226562 0.402344 19.445312 0.59375 19.636719 C 0.78125 19.824219 1 19.972656 1.25 20.074219 C 1.496094 20.175781 1.753906 20.226562 2.023438 20.226562 L 16.183594 20.226562 C 16.449219 20.226562 16.707031 20.175781 16.957031 20.074219 C 17.203125 19.972656 17.421875 19.824219 17.613281 19.636719 C 17.800781 19.445312 17.949219 19.226562 18.050781 18.980469 C 18.152344 18.730469 18.207031 18.472656 18.207031 18.207031 L 18.207031 2.023438 C 18.207031 1.753906 18.152344 1.496094 18.050781 1.25 C 17.949219 1 17.800781 0.78125 17.613281 0.59375 C 17.421875 0.402344 17.203125 0.257812 16.957031 0.152344 C 16.707031 0.0507812 16.449219 0 16.183594 0 Z M 38.433594 20.226562 L 24.273438 20.226562 C 24.003906 20.226562 23.746094 20.277344 23.5 20.382812 C 23.25 20.484375 23.03125 20.628906 22.84375 20.820312 C 22.652344 21.011719 22.507812 21.230469 22.40625 21.476562 C 22.300781 21.722656 22.25 21.984375 22.25 22.25 L 22.25 38.433594 C 22.25 38.703125 22.300781 38.960938 22.40625 39.207031 C 22.507812 39.453125 22.652344 39.671875 22.84375 39.863281 C 23.03125 40.054688 23.25 40.199219 23.5 40.300781 C 23.746094 40.40625 24.003906 40.457031 24.273438 40.457031 L 38.433594 40.457031 C 38.703125 40.457031 38.960938 40.40625 39.207031 40.300781 C 39.453125 40.199219 39.671875 40.054688 39.863281 39.863281 C 40.054688 39.671875 40.199219 39.453125 40.300781 39.207031 C 40.40625 38.960938 40.457031 38.703125 40.457031 38.433594 L 40.457031 22.25 C 40.457031 21.984375 40.40625 21.722656 40.300781 21.476562 C 40.199219 21.230469 40.054688 21.011719 39.863281 20.820312 C 39.671875 20.628906 39.453125 20.484375 39.207031 20.382812 C 38.960938 20.277344 38.703125 20.226562 38.433594 20.226562 Z M 38.433594 20.226562 " fill-opacity="1" fill-rule="nonzero"/><path fill="#f1f1f1" d="M 40.457031 2.023438 L 40.457031 14.160156 C 40.457031 14.429688 40.40625 14.6875 40.300781 14.933594 C 40.199219 15.179688 40.054688 15.398438 39.863281 15.589844 C 39.671875 15.78125 39.453125 15.925781 39.207031 16.027344 C 38.960938 16.132812 38.703125 16.183594 38.433594 16.183594 L 24.273438 16.183594 C 24.003906 16.183594 23.746094 16.132812 23.5 16.027344 C 23.25 15.925781 23.03125 15.78125 22.84375 15.589844 C 22.652344 15.398438 22.507812 15.179688 22.40625 14.933594 C 22.300781 14.6875 22.25 14.429688 22.25 14.160156 L 22.25 2.023438 C 22.25 1.753906 22.300781 1.496094 22.40625 1.25 C 22.507812 1 22.652344 0.78125 22.84375 0.59375 C 23.03125 0.402344 23.25 0.257812 23.5 0.152344 C 23.746094 0.0507812 24.003906 0 24.273438 0 L 38.433594 0 C 38.703125 0 38.960938 0.0507812 39.207031 0.152344 C 39.453125 0.257812 39.671875 0.402344 39.863281 0.59375 C 40.054688 0.78125 40.199219 1 40.300781 1.25 C 40.40625 1.496094 40.457031 1.753906 40.457031 2.023438 Z M 16.183594 24.273438 L 2.023438 24.273438 C 1.753906 24.273438 1.496094 24.324219 1.25 24.425781 C 1 24.53125 0.78125 24.675781 0.59375 24.867188 C 0.402344 25.054688 0.257812 25.273438 0.152344 25.523438 C 0.0507812 25.769531 0 26.027344 0 26.296875 L 0 38.433594 C 0 38.703125 0.0507812 38.960938 0.152344 39.207031 C 0.257812 39.453125 0.402344 39.671875 0.59375 39.863281 C 0.78125 40.054688 1 40.199219 1.25 40.300781 C 1.496094 40.40625 1.753906 40.457031 2.023438 40.457031 L 16.183594 40.457031 C 16.449219 40.457031 16.707031 40.40625 16.957031 40.300781 C 17.203125 40.199219 17.421875 40.054688 17.613281 39.863281 C 17.800781 39.671875 17.949219 39.453125 18.050781 39.207031 C 18.152344 38.960938 18.207031 38.703125 18.207031 38.433594 L 18.207031 26.296875 C 18.207031 26.027344 18.152344 25.769531 18.050781 25.523438 C 17.949219 25.273438 17.800781 25.054688 17.613281 24.867188 C 17.421875 24.675781 17.203125 24.53125 16.957031 24.425781 C 16.707031 24.324219 16.449219 24.273438 16.183594 24.273438 Z M 16.183594 0 L 2.023438 0 C 1.753906 0 1.496094 0.0507812 1.25 0.152344 C 1 0.257812 0.78125 0.402344 0.59375 0.59375 C 0.402344 0.78125 0.257812 1 0.152344 1.25 C 0.0507812 1.496094 0 1.753906 0 2.023438 L 0 18.207031 C 0 18.472656 0.0507812 18.730469 0.152344 18.980469 C 0.257812 19.226562 0.402344 19.445312 0.59375 19.636719 C 0.78125 19.824219 1 19.972656 1.25 20.074219 C 1.496094 20.175781 1.753906 20.226562 2.023438 20.226562 L 16.183594 20.226562 C 16.449219 20.226562 16.707031 20.175781 16.957031 20.074219 C 17.203125 19.972656 17.421875 19.824219 17.613281 19.636719 C 17.800781 19.445312 17.949219 19.226562 18.050781 18.980469 C 18.152344 18.730469 18.207031 18.472656 18.207031 18.207031 L 18.207031 2.023438 C 18.207031 1.753906 18.152344 1.496094 18.050781 1.25 C 17.949219 1 17.800781 0.78125 17.613281 0.59375 C 17.421875 0.402344 17.203125 0.257812 16.957031 0.152344 C 16.707031 0.0507812 16.449219 0 16.183594 0 Z M 38.433594 20.226562 L 24.273438 20.226562 C 24.003906 20.226562 23.746094 20.277344 23.5 20.382812 C 23.25 20.484375 23.03125 20.628906 22.84375 20.820312 C 22.652344 21.011719 22.507812 21.230469 22.40625 21.476562 C 22.300781 21.722656 22.25 21.984375 22.25 22.25 L 22.25 38.433594 C 22.25 38.703125 22.300781 38.960938 22.40625 39.207031 C 22.507812 39.453125 22.652344 39.671875 22.84375 39.863281 C 23.03125 40.054688 23.25 40.199219 23.5 40.300781 C 23.746094 40.40625 24.003906 40.457031 24.273438 40.457031 L 38.433594 40.457031 C 38.703125 40.457031 38.960938 40.40625 39.207031 40.300781 C 39.453125 40.199219 39.671875 40.054688 39.863281 39.863281 C 40.054688 39.671875 40.199219 39.453125 40.300781 39.207031 C 40.40625 38.960938 40.457031 38.703125 40.457031 38.433594 L 40.457031 22.25 C 40.457031 21.984375 40.40625 21.722656 40.300781 21.476562 C 40.199219 21.230469 40.054688 21.011719 39.863281 20.820312 C 39.671875 20.628906 39.453125 20.484375 39.207031 20.382812 C 38.960938 20.277344 38.703125 20.226562 38.433594 20.226562 Z M 38.433594 20.226562 " fill-opacity="1" fill-rule="nonzero"/></g></svg>
