<svg xmlns="http://www.w3.org/2000/svg" xmlns:xlink="http://www.w3.org/1999/xlink" width="40" zoomAndPan="magnify" viewBox="0 0 30 28.499999" height="38" preserveAspectRatio="xMidYMid meet" version="1.0"><defs><clipPath id="00df7e2935"><path d="M 0.257812 0 L 29.003906 0 L 29.003906 27.273438 L 0.257812 27.273438 Z M 0.257812 0 " clip-rule="nonzero"/></clipPath></defs><g clip-path="url(#00df7e2935)"><path fill="#a6a6a6" d="M 7.914062 2.171875 L 5.949219 0.207031 C 2.65625 2.714844 0.484375 6.589844 0.28125 10.996094 L 3.027344 10.996094 C 3.242188 7.355469 5.117188 4.164062 7.914062 2.171875 Z M 26.328125 10.996094 L 29.074219 10.996094 C 28.871094 6.589844 26.699219 2.714844 23.40625 0.207031 L 21.445312 2.164062 C 24.238281 4.164062 26.113281 7.355469 26.328125 10.996094 Z M 23.613281 11.683594 C 23.613281 7.457031 20.675781 3.929688 16.738281 2.996094 L 16.738281 2.0625 C 16.738281 0.921875 15.820312 0 14.675781 0 C 13.535156 0 12.617188 0.921875 12.617188 2.0625 L 12.617188 2.996094 C 8.679688 3.929688 5.742188 7.457031 5.742188 11.683594 L 5.742188 19.242188 L 2.996094 21.992188 L 2.996094 23.367188 L 26.359375 23.367188 L 26.359375 21.992188 L 23.613281 19.242188 Z M 14.675781 27.492188 C 14.871094 27.492188 15.054688 27.46875 15.234375 27.433594 C 16.128906 27.25 16.863281 26.632812 17.214844 25.8125 C 17.351562 25.484375 17.425781 25.125 17.425781 24.742188 L 11.929688 24.742188 C 11.929688 26.261719 13.160156 27.492188 14.675781 27.492188 Z M 14.675781 27.492188 " fill-opacity="1" fill-rule="nonzero"/><path fill="#a6a6a6" d="M 7.914062 2.171875 L 5.949219 0.207031 C 2.65625 2.714844 0.484375 6.589844 0.28125 10.996094 L 3.027344 10.996094 C 3.242188 7.355469 5.117188 4.164062 7.914062 2.171875 Z M 26.328125 10.996094 L 29.074219 10.996094 C 28.871094 6.589844 26.699219 2.714844 23.40625 0.207031 L 21.445312 2.164062 C 24.238281 4.164062 26.113281 7.355469 26.328125 10.996094 Z M 23.613281 11.683594 C 23.613281 7.457031 20.675781 3.929688 16.738281 2.996094 L 16.738281 2.0625 C 16.738281 0.921875 15.820312 0 14.675781 0 C 13.535156 0 12.617188 0.921875 12.617188 2.0625 L 12.617188 2.996094 C 8.679688 3.929688 5.742188 7.457031 5.742188 11.683594 L 5.742188 19.242188 L 2.996094 21.992188 L 2.996094 23.367188 L 26.359375 23.367188 L 26.359375 21.992188 L 23.613281 19.242188 Z M 14.675781 27.492188 C 14.871094 27.492188 15.054688 27.46875 15.234375 27.433594 C 16.128906 27.25 16.863281 26.632812 17.214844 25.8125 C 17.351562 25.484375 17.425781 25.125 17.425781 24.742188 L 11.929688 24.742188 C 11.929688 26.261719 13.160156 27.492188 14.675781 27.492188 Z M 14.675781 27.492188 " fill-opacity="1" fill-rule="nonzero"/></g></svg>
