<svg xmlns="http://www.w3.org/2000/svg" xmlns:xlink="http://www.w3.org/1999/xlink" width="38" zoomAndPan="magnify" viewBox="0 0 28.5 29.25" height="39" preserveAspectRatio="xMidYMid meet" version="1.0"><defs><clipPath id="501b4298b4"><path d="M 0.113281 0.550781 L 27.167969 0.550781 L 27.167969 27.609375 L 0.113281 27.609375 Z M 0.113281 0.550781 " clip-rule="nonzero"/></clipPath><clipPath id="a2c6879735"><path d="M 0.113281 0 L 27.167969 0 L 27.167969 27.054688 L 0.113281 27.054688 Z M 0.113281 0 " clip-rule="nonzero"/></clipPath></defs><g clip-path="url(#501b4298b4)"><path fill="#a6a6a6" d="M 13.65625 9 C 16.488281 8.949219 18.828125 11.203125 18.882812 14.039062 C 18.882812 14.089844 18.882812 14.140625 18.882812 14.191406 C 18.914062 17.027344 16.644531 19.351562 13.808594 19.382812 C 10.972656 19.414062 8.648438 17.140625 8.617188 14.304688 C 8.617188 14.269531 8.617188 14.230469 8.617188 14.191406 C 8.585938 11.371094 10.832031 9.050781 13.65625 9 Z M 14.203125 0.5625 C 13.4375 0.535156 12.671875 0.574219 11.914062 0.675781 C 11.644531 0.714844 11.425781 0.902344 11.34375 1.160156 L 10.589844 3.617188 C 10.523438 3.828125 10.363281 3.996094 10.160156 4.066406 C 9.800781 4.195312 9.453125 4.339844 9.113281 4.5 C 8.914062 4.597656 8.679688 4.59375 8.488281 4.488281 L 6.214844 3.28125 C 5.976562 3.15625 5.6875 3.179688 5.472656 3.34375 C 4.5 4.082031 3.632812 4.953125 2.890625 5.925781 C 2.726562 6.140625 2.703125 6.425781 2.828125 6.667969 L 4.039062 8.941406 C 4.140625 9.132812 4.152344 9.363281 4.0625 9.5625 C 3.898438 9.90625 3.75 10.253906 3.625 10.609375 C 3.554688 10.816406 3.386719 10.976562 3.175781 11.039062 L 0.71875 11.796875 C 0.457031 11.875 0.269531 12.097656 0.234375 12.363281 C 0.0703125 13.578125 0.0703125 14.804688 0.234375 16.015625 C 0.269531 16.28125 0.457031 16.503906 0.71875 16.582031 L 3.175781 17.339844 C 3.386719 17.402344 3.554688 17.5625 3.625 17.769531 C 3.75 18.128906 3.898438 18.476562 4.0625 18.816406 C 4.152344 19.015625 4.140625 19.25 4.039062 19.441406 L 2.828125 21.714844 C 2.703125 21.949219 2.726562 22.242188 2.890625 22.457031 C 3.632812 23.425781 4.5 24.292969 5.472656 25.035156 C 5.6875 25.199219 5.976562 25.222656 6.214844 25.097656 L 8.488281 23.890625 C 8.679688 23.789062 8.914062 23.785156 9.113281 23.878906 C 9.453125 24.039062 9.800781 24.183594 10.160156 24.3125 C 10.363281 24.382812 10.523438 24.550781 10.589844 24.757812 L 11.34375 27.21875 C 11.425781 27.476562 11.644531 27.667969 11.914062 27.699219 C 13.125 27.867188 14.351562 27.867188 15.5625 27.699219 C 15.828125 27.667969 16.050781 27.476562 16.132812 27.21875 L 16.886719 24.757812 C 16.953125 24.550781 17.113281 24.382812 17.316406 24.3125 C 17.675781 24.183594 18.023438 24.039062 18.363281 23.878906 C 18.5625 23.785156 18.792969 23.789062 18.988281 23.890625 L 21.261719 25.097656 C 21.5 25.222656 21.789062 25.199219 22.003906 25.035156 C 22.976562 24.292969 23.84375 23.425781 24.585938 22.457031 C 24.75 22.242188 24.773438 21.949219 24.648438 21.714844 L 23.441406 19.441406 C 23.335938 19.25 23.328125 19.015625 23.417969 18.816406 C 23.578125 18.476562 23.726562 18.128906 23.851562 17.769531 C 23.921875 17.5625 24.089844 17.402344 24.300781 17.339844 L 26.761719 16.582031 C 27.019531 16.503906 27.207031 16.28125 27.242188 16.015625 C 27.40625 14.804688 27.40625 13.578125 27.242188 12.363281 C 27.207031 12.097656 27.019531 11.875 26.761719 11.796875 L 24.300781 11.039062 C 24.089844 10.976562 23.921875 10.816406 23.851562 10.609375 C 23.726562 10.253906 23.578125 9.90625 23.417969 9.5625 C 23.328125 9.363281 23.335938 9.132812 23.441406 8.941406 L 24.648438 6.667969 C 24.773438 6.425781 24.75 6.140625 24.585938 5.925781 C 23.84375 4.953125 22.976562 4.082031 22.003906 3.34375 C 21.789062 3.179688 21.5 3.15625 21.261719 3.28125 L 18.988281 4.488281 C 18.792969 4.59375 18.5625 4.597656 18.363281 4.503906 C 18.023438 4.339844 17.675781 4.195312 17.316406 4.070312 C 17.113281 3.996094 16.953125 3.828125 16.886719 3.617188 L 16.132812 1.160156 C 16.050781 0.902344 15.828125 0.714844 15.5625 0.675781 C 15.113281 0.617188 14.660156 0.578125 14.203125 0.5625 " fill-opacity="1" fill-rule="nonzero"/></g><g clip-path="url(#a2c6879735)"><path fill="#a6a6a6" d="M 13.65625 8.449219 C 16.488281 8.398438 18.828125 10.652344 18.882812 13.488281 C 18.882812 13.539062 18.882812 13.589844 18.882812 13.640625 C 18.914062 16.472656 16.644531 18.800781 13.808594 18.832031 C 10.972656 18.863281 8.648438 16.589844 8.617188 13.753906 C 8.617188 13.714844 8.617188 13.679688 8.617188 13.640625 C 8.585938 10.816406 10.832031 8.5 13.65625 8.449219 Z M 14.203125 0.0117188 C 13.4375 -0.015625 12.671875 0.0234375 11.914062 0.125 C 11.644531 0.164062 11.425781 0.351562 11.34375 0.609375 L 10.589844 3.066406 C 10.523438 3.277344 10.363281 3.441406 10.160156 3.515625 C 9.800781 3.644531 9.453125 3.785156 9.113281 3.949219 C 8.914062 4.046875 8.679688 4.042969 8.488281 3.9375 L 6.214844 2.730469 C 5.976562 2.605469 5.6875 2.628906 5.472656 2.792969 C 4.5 3.53125 3.632812 4.402344 2.890625 5.371094 C 2.726562 5.589844 2.703125 5.875 2.828125 6.117188 L 4.039062 8.390625 C 4.140625 8.582031 4.152344 8.8125 4.0625 9.011719 C 3.898438 9.351562 3.75 9.703125 3.625 10.058594 C 3.554688 10.265625 3.386719 10.425781 3.175781 10.488281 L 0.71875 11.246094 C 0.457031 11.324219 0.269531 11.546875 0.234375 11.8125 C 0.0703125 13.027344 0.0703125 14.25 0.234375 15.464844 C 0.269531 15.730469 0.457031 15.953125 0.71875 16.03125 L 3.175781 16.789062 C 3.386719 16.851562 3.554688 17.011719 3.625 17.21875 C 3.75 17.574219 3.898438 17.925781 4.0625 18.265625 C 4.152344 18.464844 4.140625 18.695312 4.039062 18.886719 L 2.828125 21.160156 C 2.703125 21.398438 2.726562 21.691406 2.890625 21.90625 C 3.632812 22.875 4.5 23.742188 5.472656 24.484375 C 5.6875 24.648438 5.976562 24.671875 6.214844 24.546875 L 8.488281 23.339844 C 8.679688 23.238281 8.914062 23.230469 9.113281 23.328125 C 9.453125 23.488281 9.800781 23.632812 10.160156 23.761719 C 10.363281 23.832031 10.523438 24 10.589844 24.207031 L 11.34375 26.667969 C 11.425781 26.925781 11.644531 27.117188 11.914062 27.148438 C 13.125 27.316406 14.351562 27.316406 15.5625 27.148438 C 15.828125 27.117188 16.050781 26.925781 16.132812 26.667969 L 16.886719 24.207031 C 16.953125 24 17.113281 23.832031 17.316406 23.761719 C 17.675781 23.632812 18.023438 23.488281 18.363281 23.328125 C 18.5625 23.230469 18.792969 23.238281 18.988281 23.339844 L 21.261719 24.546875 C 21.5 24.671875 21.789062 24.648438 22.003906 24.484375 C 22.976562 23.742188 23.84375 22.875 24.585938 21.90625 C 24.75 21.691406 24.773438 21.398438 24.648438 21.160156 L 23.441406 18.886719 C 23.335938 18.695312 23.328125 18.464844 23.417969 18.265625 C 23.578125 17.925781 23.726562 17.574219 23.851562 17.21875 C 23.921875 17.011719 24.089844 16.851562 24.300781 16.789062 L 26.761719 16.03125 C 27.019531 15.953125 27.207031 15.730469 27.242188 15.464844 C 27.40625 14.25 27.40625 13.027344 27.242188 11.8125 C 27.207031 11.546875 27.019531 11.324219 26.761719 11.246094 L 24.300781 10.488281 C 24.089844 10.425781 23.921875 10.265625 23.851562 10.058594 C 23.726562 9.703125 23.578125 9.351562 23.417969 9.011719 C 23.328125 8.8125 23.335938 8.582031 23.441406 8.390625 L 24.648438 6.117188 C 24.773438 5.875 24.75 5.589844 24.585938 5.371094 C 23.84375 4.402344 22.976562 3.53125 22.003906 2.792969 C 21.789062 2.628906 21.5 2.605469 21.261719 2.730469 L 18.988281 3.9375 C 18.792969 4.042969 18.5625 4.046875 18.363281 3.953125 C 18.023438 3.789062 17.675781 3.644531 17.316406 3.519531 C 17.113281 3.445312 16.953125 3.277344 16.886719 3.066406 L 16.132812 0.609375 C 16.050781 0.351562 15.828125 0.164062 15.5625 0.125 C 15.113281 0.0664062 14.660156 0.0273438 14.203125 0.0117188 " fill-opacity="1" fill-rule="nonzero"/></g></svg>
