<svg xmlns="http://www.w3.org/2000/svg" xmlns:xlink="http://www.w3.org/1999/xlink" width="66" zoomAndPan="magnify" viewBox="0 0 49.5 49.499998" height="66" preserveAspectRatio="xMidYMid meet" version="1.0"><defs><clipPath id="aad57ece91"><path d="M 24 24 L 48.261719 24 L 48.261719 48.261719 L 24 48.261719 Z M 24 24 " clip-rule="nonzero"/></clipPath><clipPath id="1d1f3b1440"><path d="M 24 24 L 48.261719 24 L 48.261719 48.261719 L 24 48.261719 Z M 24 24 " clip-rule="nonzero"/></clipPath></defs><path fill="#f1f1f1" d="M 24.167969 46.636719 L 3.816406 46.636719 C 1.710938 46.636719 0 44.925781 0 42.820312 L 0 3.816406 C 0 1.710938 1.710938 0 3.816406 0 L 37.734375 0 C 39.835938 0 41.546875 1.710938 41.546875 3.816406 L 41.546875 26.363281 C 41.546875 27.0625 40.980469 27.632812 40.277344 27.632812 C 39.574219 27.632812 39.003906 27.0625 39.003906 26.363281 L 39.003906 3.816406 C 39.003906 3.113281 38.433594 2.542969 37.734375 2.542969 L 3.816406 2.542969 C 3.113281 2.542969 2.542969 3.113281 2.542969 3.816406 L 2.542969 42.820312 C 2.542969 43.523438 3.113281 44.09375 3.816406 44.09375 L 24.167969 44.09375 C 24.867188 44.09375 25.4375 44.664062 25.4375 45.363281 C 25.4375 46.066406 24.867188 46.636719 24.167969 46.636719 Z M 24.167969 46.636719 " fill-opacity="1" fill-rule="nonzero"/><path fill="#f1f1f1" d="M 22.46875 27.980469 L 7.207031 27.980469 C 6.503906 27.980469 5.933594 27.410156 5.933594 26.710938 L 5.933594 7.207031 C 5.933594 6.503906 6.503906 5.933594 7.207031 5.933594 C 7.910156 5.933594 8.480469 6.503906 8.480469 7.207031 L 8.480469 25.4375 L 22.46875 25.4375 C 23.171875 25.4375 23.742188 26.007812 23.742188 26.710938 C 23.742188 27.410156 23.171875 27.980469 22.46875 27.980469 Z M 22.46875 27.980469 " fill-opacity="1" fill-rule="nonzero"/><path fill="#f1f1f1" d="M 7.207031 22.046875 C 6.910156 22.046875 6.613281 21.941406 6.371094 21.730469 C 5.839844 21.269531 5.789062 20.464844 6.25 19.9375 L 12.1875 13.152344 C 12.417969 12.890625 12.75 12.730469 13.101562 12.71875 C 13.445312 12.699219 13.792969 12.84375 14.042969 13.09375 L 18.984375 18.035156 L 25.726562 9.792969 C 25.953125 9.515625 26.289062 9.347656 26.644531 9.328125 C 27.015625 9.316406 27.355469 9.445312 27.609375 9.699219 L 30.84375 12.933594 L 33.347656 9.804688 C 33.785156 9.257812 34.585938 9.164062 35.136719 9.605469 C 35.683594 10.046875 35.773438 10.84375 35.335938 11.394531 L 31.941406 15.632812 C 31.714844 15.917969 31.382812 16.089844 31.019531 16.109375 C 30.664062 16.125 30.304688 15.992188 30.050781 15.738281 L 26.804688 12.492188 L 20.0625 20.730469 C 19.835938 21.011719 19.5 21.179688 19.140625 21.195312 C 18.769531 21.207031 18.433594 21.078125 18.179688 20.824219 L 13.207031 15.851562 L 8.164062 21.613281 C 7.914062 21.898438 7.5625 22.046875 7.207031 22.046875 Z M 7.207031 22.046875 " fill-opacity="1" fill-rule="nonzero"/><path fill="#f1f1f1" d="M 20.773438 33.917969 L 7.207031 33.917969 C 6.503906 33.917969 5.933594 33.347656 5.933594 32.644531 C 5.933594 31.941406 6.503906 31.375 7.207031 31.375 L 20.773438 31.375 C 21.476562 31.375 22.046875 31.941406 22.046875 32.644531 C 22.046875 33.347656 21.476562 33.917969 20.773438 33.917969 Z M 20.773438 33.917969 " fill-opacity="1" fill-rule="nonzero"/><path fill="#f1f1f1" d="M 14.839844 39.003906 L 7.207031 39.003906 C 6.503906 39.003906 5.933594 38.433594 5.933594 37.734375 C 5.933594 37.03125 6.503906 36.460938 7.207031 36.460938 L 14.839844 36.460938 C 15.539062 36.460938 16.109375 37.03125 16.109375 37.734375 C 16.109375 38.433594 15.539062 39.003906 14.839844 39.003906 Z M 14.839844 39.003906 " fill-opacity="1" fill-rule="nonzero"/><g clip-path="url(#aad57ece91)"><path fill="#f1f1f1" d="M 36.335938 48.332031 C 29.71875 48.332031 24.335938 42.949219 24.335938 36.335938 C 24.335938 29.71875 29.71875 24.335938 36.335938 24.335938 C 42.949219 24.335938 48.332031 29.71875 48.332031 36.335938 C 48.332031 42.949219 42.949219 48.332031 36.335938 48.332031 Z M 36.335938 26.878906 C 31.121094 26.878906 26.878906 31.121094 26.878906 36.335938 C 26.878906 41.546875 31.121094 45.789062 36.335938 45.789062 C 41.546875 45.789062 45.789062 41.546875 45.789062 36.335938 C 45.789062 31.121094 41.546875 26.878906 36.335938 26.878906 Z M 36.335938 26.878906 " fill-opacity="1" fill-rule="nonzero"/></g><path fill="#f1f1f1" d="M 41.050781 41.945312 C 40.742188 41.945312 40.433594 41.832031 40.1875 41.609375 L 35.472656 37.269531 C 35.210938 37.03125 35.0625 36.691406 35.0625 36.335938 L 35.0625 30.0625 C 35.0625 29.363281 35.632812 28.792969 36.335938 28.792969 C 37.035156 28.792969 37.605469 29.363281 37.605469 30.0625 L 37.605469 35.777344 L 41.910156 39.734375 C 42.429688 40.210938 42.460938 41.015625 41.988281 41.53125 C 41.734375 41.804688 41.394531 41.945312 41.050781 41.945312 Z M 41.050781 41.945312 " fill-opacity="1" fill-rule="nonzero"/><path fill="#f1f1f1" d="M 24.167969 46.636719 L 3.816406 46.636719 C 1.710938 46.636719 0 44.925781 0 42.820312 L 0 3.816406 C 0 1.710938 1.710938 0 3.816406 0 L 37.734375 0 C 39.835938 0 41.546875 1.710938 41.546875 3.816406 L 41.546875 26.363281 C 41.546875 27.0625 40.980469 27.632812 40.277344 27.632812 C 39.574219 27.632812 39.003906 27.0625 39.003906 26.363281 L 39.003906 3.816406 C 39.003906 3.113281 38.433594 2.542969 37.734375 2.542969 L 3.816406 2.542969 C 3.113281 2.542969 2.542969 3.113281 2.542969 3.816406 L 2.542969 42.820312 C 2.542969 43.523438 3.113281 44.09375 3.816406 44.09375 L 24.167969 44.09375 C 24.867188 44.09375 25.4375 44.664062 25.4375 45.363281 C 25.4375 46.066406 24.867188 46.636719 24.167969 46.636719 Z M 24.167969 46.636719 " fill-opacity="1" fill-rule="nonzero"/><path fill="#f1f1f1" d="M 22.46875 27.980469 L 7.207031 27.980469 C 6.503906 27.980469 5.933594 27.410156 5.933594 26.710938 L 5.933594 7.207031 C 5.933594 6.503906 6.503906 5.933594 7.207031 5.933594 C 7.910156 5.933594 8.480469 6.503906 8.480469 7.207031 L 8.480469 25.4375 L 22.46875 25.4375 C 23.171875 25.4375 23.742188 26.007812 23.742188 26.710938 C 23.742188 27.410156 23.171875 27.980469 22.46875 27.980469 Z M 22.46875 27.980469 " fill-opacity="1" fill-rule="nonzero"/><path fill="#f1f1f1" d="M 7.207031 22.046875 C 6.910156 22.046875 6.613281 21.941406 6.371094 21.730469 C 5.839844 21.269531 5.789062 20.464844 6.25 19.9375 L 12.1875 13.152344 C 12.417969 12.890625 12.75 12.730469 13.101562 12.71875 C 13.445312 12.699219 13.792969 12.84375 14.042969 13.09375 L 18.984375 18.035156 L 25.726562 9.792969 C 25.953125 9.515625 26.289062 9.347656 26.644531 9.328125 C 27.015625 9.316406 27.355469 9.445312 27.609375 9.699219 L 30.84375 12.933594 L 33.347656 9.804688 C 33.785156 9.257812 34.585938 9.164062 35.136719 9.605469 C 35.683594 10.046875 35.773438 10.84375 35.335938 11.394531 L 31.941406 15.632812 C 31.714844 15.917969 31.382812 16.089844 31.019531 16.109375 C 30.664062 16.125 30.304688 15.992188 30.050781 15.738281 L 26.804688 12.492188 L 20.0625 20.730469 C 19.835938 21.011719 19.5 21.179688 19.140625 21.195312 C 18.769531 21.207031 18.433594 21.078125 18.179688 20.824219 L 13.207031 15.851562 L 8.164062 21.613281 C 7.914062 21.898438 7.5625 22.046875 7.207031 22.046875 Z M 7.207031 22.046875 " fill-opacity="1" fill-rule="nonzero"/><path fill="#f1f1f1" d="M 20.773438 33.917969 L 7.207031 33.917969 C 6.503906 33.917969 5.933594 33.347656 5.933594 32.644531 C 5.933594 31.941406 6.503906 31.375 7.207031 31.375 L 20.773438 31.375 C 21.476562 31.375 22.046875 31.941406 22.046875 32.644531 C 22.046875 33.347656 21.476562 33.917969 20.773438 33.917969 Z M 20.773438 33.917969 " fill-opacity="1" fill-rule="nonzero"/><path fill="#f1f1f1" d="M 14.839844 39.003906 L 7.207031 39.003906 C 6.503906 39.003906 5.933594 38.433594 5.933594 37.734375 C 5.933594 37.03125 6.503906 36.460938 7.207031 36.460938 L 14.839844 36.460938 C 15.539062 36.460938 16.109375 37.03125 16.109375 37.734375 C 16.109375 38.433594 15.539062 39.003906 14.839844 39.003906 Z M 14.839844 39.003906 " fill-opacity="1" fill-rule="nonzero"/><g clip-path="url(#1d1f3b1440)"><path fill="#f1f1f1" d="M 36.335938 48.332031 C 29.71875 48.332031 24.335938 42.949219 24.335938 36.335938 C 24.335938 29.71875 29.71875 24.335938 36.335938 24.335938 C 42.949219 24.335938 48.332031 29.71875 48.332031 36.335938 C 48.332031 42.949219 42.949219 48.332031 36.335938 48.332031 Z M 36.335938 26.878906 C 31.121094 26.878906 26.878906 31.121094 26.878906 36.335938 C 26.878906 41.546875 31.121094 45.789062 36.335938 45.789062 C 41.546875 45.789062 45.789062 41.546875 45.789062 36.335938 C 45.789062 31.121094 41.546875 26.878906 36.335938 26.878906 Z M 36.335938 26.878906 " fill-opacity="1" fill-rule="nonzero"/></g><path fill="#f1f1f1" d="M 41.050781 41.945312 C 40.742188 41.945312 40.433594 41.832031 40.1875 41.609375 L 35.472656 37.269531 C 35.210938 37.03125 35.0625 36.691406 35.0625 36.335938 L 35.0625 30.0625 C 35.0625 29.363281 35.632812 28.792969 36.335938 28.792969 C 37.035156 28.792969 37.605469 29.363281 37.605469 30.0625 L 37.605469 35.777344 L 41.910156 39.734375 C 42.429688 40.210938 42.460938 41.015625 41.988281 41.53125 C 41.734375 41.804688 41.394531 41.945312 41.050781 41.945312 Z M 41.050781 41.945312 " fill-opacity="1" fill-rule="nonzero"/></svg>