<svg xmlns="http://www.w3.org/2000/svg" xmlns:xlink="http://www.w3.org/1999/xlink" width="64" zoomAndPan="magnify" viewBox="0 0 48 43.499998" height="58" preserveAspectRatio="xMidYMid meet" version="1.0"><defs><clipPath id="10ce13640b"><path d="M 0.273438 0 L 46.984375 0 L 46.984375 42.265625 L 0.273438 42.265625 Z M 0.273438 0 " clip-rule="nonzero"/></clipPath><clipPath id="7630171263"><path d="M 28 16 L 37 16 L 37 42.265625 L 28 42.265625 Z M 28 16 " clip-rule="nonzero"/></clipPath><clipPath id="7405e28ce2"><path d="M 39 10 L 46.984375 10 L 46.984375 42.265625 L 39 42.265625 Z M 39 10 " clip-rule="nonzero"/></clipPath><clipPath id="9c19c01b3c"><path d="M 0.273438 0 L 46.984375 0 L 46.984375 42.265625 L 0.273438 42.265625 Z M 0.273438 0 " clip-rule="nonzero"/></clipPath><clipPath id="ae9c446f6c"><path d="M 28 16 L 37 16 L 37 42.265625 L 28 42.265625 Z M 28 16 " clip-rule="nonzero"/></clipPath><clipPath id="fa6ae4beca"><path d="M 39 10 L 46.984375 10 L 46.984375 42.265625 L 39 42.265625 Z M 39 10 " clip-rule="nonzero"/></clipPath></defs><g clip-path="url(#10ce13640b)"><path fill="#f1f1f1" d="M 46.476562 0.355469 L 41.214844 0.4375 C 41.007812 0.441406 40.832031 0.515625 40.6875 0.664062 C 40.542969 0.816406 40.472656 0.992188 40.472656 1.199219 C 40.480469 1.40625 40.558594 1.582031 40.707031 1.726562 C 40.855469 1.871094 41.03125 1.941406 41.238281 1.941406 L 44.363281 1.894531 L 32.058594 12.125 L 25.878906 4.972656 C 25.765625 4.84375 25.625 4.761719 25.457031 4.726562 C 25.289062 4.695312 25.125 4.714844 24.972656 4.792969 L 20.257812 7.15625 C 20.035156 6.804688 19.789062 6.464844 19.523438 6.140625 C 19.261719 5.816406 18.976562 5.511719 18.675781 5.21875 C 18.375 4.929688 18.058594 4.65625 17.726562 4.402344 C 17.394531 4.148438 17.046875 3.914062 16.6875 3.703125 C 16.328125 3.488281 15.957031 3.296875 15.574219 3.128906 C 15.191406 2.960938 14.800781 2.8125 14.398438 2.691406 C 14 2.566406 13.59375 2.46875 13.183594 2.390625 C 12.769531 2.316406 12.355469 2.265625 11.9375 2.238281 C 11.523438 2.210938 11.105469 2.207031 10.6875 2.230469 C 10.269531 2.253906 9.851562 2.296875 9.441406 2.371094 C 9.027344 2.441406 8.621094 2.535156 8.21875 2.65625 C 7.820312 2.773438 7.425781 2.914062 7.042969 3.078125 C 6.65625 3.246094 6.285156 3.433594 5.921875 3.640625 C 5.558594 3.847656 5.210938 4.078125 4.875 4.328125 C 4.539062 4.578125 4.21875 4.847656 3.914062 5.136719 C 3.609375 5.421875 3.324219 5.726562 3.054688 6.046875 C 2.789062 6.367188 2.539062 6.703125 2.3125 7.054688 C 2.082031 7.40625 1.875 7.769531 1.6875 8.144531 C 1.503906 8.515625 1.339844 8.902344 1.199219 9.296875 C 1.058594 9.691406 0.941406 10.089844 0.847656 10.5 C 0.753906 10.90625 0.683594 11.316406 0.636719 11.734375 C 0.589844 12.148438 0.570312 12.566406 0.574219 12.984375 C 0.578125 13.402344 0.605469 13.820312 0.660156 14.234375 C 0.710938 14.652344 0.789062 15.0625 0.890625 15.46875 C 0.988281 15.875 1.113281 16.273438 1.261719 16.664062 C 1.410156 17.054688 1.578125 17.4375 1.773438 17.808594 C 1.964844 18.179688 2.179688 18.539062 2.414062 18.882812 C 2.648438 19.230469 2.902344 19.5625 3.175781 19.878906 C 3.449219 20.195312 3.742188 20.496094 4.050781 20.777344 C 4.359375 21.058594 4.683594 21.320312 5.023438 21.566406 C 5.363281 21.808594 5.714844 22.035156 6.082031 22.234375 C 6.449219 22.4375 6.824219 22.617188 7.210938 22.777344 L 7.210938 41.40625 C 7.210938 41.613281 7.285156 41.792969 7.433594 41.9375 C 7.578125 42.085938 7.757812 42.160156 7.964844 42.160156 L 13.851562 42.160156 C 14.058594 42.160156 14.234375 42.085938 14.382812 41.9375 C 14.53125 41.789062 14.605469 41.613281 14.605469 41.40625 L 14.605469 23.03125 C 15.886719 22.613281 17.050781 21.96875 18.089844 21.105469 L 18.089844 41.40625 C 18.089844 41.613281 18.164062 41.789062 18.308594 41.9375 C 18.457031 42.085938 18.632812 42.160156 18.84375 42.160156 L 24.726562 42.160156 C 24.9375 42.160156 25.113281 42.085938 25.261719 41.9375 C 25.40625 41.792969 25.480469 41.613281 25.480469 41.40625 L 25.480469 14.835938 C 25.480469 14.628906 25.40625 14.449219 25.261719 14.304688 C 25.113281 14.15625 24.9375 14.082031 24.726562 14.082031 L 21.875 14.082031 C 21.921875 13.6875 21.941406 13.292969 21.941406 12.894531 C 21.941406 11.351562 21.621094 9.882812 20.976562 8.480469 L 25.121094 6.402344 L 31.402344 13.667969 C 31.535156 13.824219 31.703125 13.910156 31.910156 13.925781 C 32.113281 13.941406 32.292969 13.886719 32.453125 13.753906 L 45.734375 2.710938 L 45.734375 6.242188 C 45.734375 6.449219 45.808594 6.628906 45.957031 6.773438 C 46.101562 6.921875 46.28125 6.996094 46.488281 6.996094 C 46.695312 6.996094 46.875 6.921875 47.019531 6.773438 C 47.167969 6.628906 47.242188 6.449219 47.242188 6.242188 L 47.242188 1.105469 C 47.230469 0.902344 47.152344 0.726562 47.007812 0.582031 C 46.859375 0.433594 46.683594 0.359375 46.476562 0.355469 Z M 11.261719 22.070312 C 10.660156 22.070312 10.0625 22.011719 9.472656 21.894531 C 8.878906 21.777344 8.304688 21.601562 7.75 21.371094 C 7.191406 21.140625 6.664062 20.859375 6.160156 20.523438 C 5.660156 20.1875 5.195312 19.808594 4.769531 19.382812 C 4.34375 18.957031 3.960938 18.492188 3.628906 17.992188 C 3.292969 17.492188 3.007812 16.960938 2.777344 16.40625 C 2.546875 15.847656 2.375 15.273438 2.257812 14.683594 C 2.136719 14.089844 2.078125 13.496094 2.078125 12.890625 C 2.078125 12.289062 2.136719 11.691406 2.253906 11.101562 C 2.375 10.507812 2.546875 9.933594 2.777344 9.378906 C 3.007812 8.820312 3.292969 8.292969 3.625 7.792969 C 3.960938 7.289062 4.339844 6.824219 4.769531 6.398438 C 5.195312 5.972656 5.65625 5.59375 6.160156 5.257812 C 6.660156 4.921875 7.1875 4.640625 7.746094 4.410156 C 8.304688 4.179688 8.878906 4.003906 9.46875 3.886719 C 10.058594 3.769531 10.65625 3.710938 11.257812 3.710938 C 11.863281 3.710938 12.460938 3.769531 13.050781 3.886719 C 13.640625 4.003906 14.214844 4.179688 14.773438 4.410156 C 15.328125 4.640625 15.859375 4.925781 16.359375 5.257812 C 16.859375 5.59375 17.324219 5.976562 17.75 6.402344 C 18.175781 6.828125 18.558594 7.292969 18.890625 7.792969 C 19.226562 8.292969 19.507812 8.824219 19.738281 9.378906 C 19.96875 9.9375 20.144531 10.511719 20.261719 11.101562 C 20.378906 11.695312 20.4375 12.292969 20.4375 12.894531 C 20.4375 13.496094 20.378906 14.09375 20.257812 14.683594 C 20.140625 15.273438 19.964844 15.847656 19.734375 16.402344 C 19.503906 16.960938 19.222656 17.488281 18.886719 17.988281 C 18.550781 18.488281 18.171875 18.953125 17.746094 19.378906 C 17.320312 19.804688 16.855469 20.183594 16.355469 20.519531 C 15.855469 20.855469 15.328125 21.136719 14.769531 21.367188 C 14.214844 21.597656 13.640625 21.773438 13.050781 21.890625 C 12.460938 22.007812 11.863281 22.070312 11.261719 22.070312 Z M 11.261719 22.070312 " fill-opacity="1" fill-rule="nonzero"/></g><g clip-path="url(#7630171263)"><path fill="#f1f1f1" d="M 29.71875 16.488281 L 35.609375 16.488281 C 35.816406 16.488281 35.992188 16.5625 36.140625 16.710938 C 36.289062 16.855469 36.359375 17.035156 36.359375 17.242188 L 36.359375 41.402344 C 36.359375 41.609375 36.289062 41.785156 36.140625 41.933594 C 35.992188 42.082031 35.816406 42.15625 35.609375 42.15625 L 29.71875 42.15625 C 29.511719 42.15625 29.332031 42.082031 29.1875 41.933594 C 29.039062 41.785156 28.964844 41.609375 28.964844 41.402344 L 28.964844 17.242188 C 28.964844 17.035156 29.039062 16.855469 29.1875 16.710938 C 29.332031 16.5625 29.511719 16.488281 29.71875 16.488281 Z M 29.71875 16.488281 " fill-opacity="1" fill-rule="nonzero"/></g><g clip-path="url(#7405e28ce2)"><path fill="#f1f1f1" d="M 40.597656 10.011719 L 46.488281 10.011719 C 46.695312 10.011719 46.875 10.085938 47.019531 10.230469 C 47.167969 10.378906 47.242188 10.554688 47.242188 10.761719 L 47.242188 41.402344 C 47.242188 41.609375 47.167969 41.789062 47.019531 41.933594 C 46.875 42.082031 46.695312 42.15625 46.488281 42.15625 L 40.597656 42.15625 C 40.390625 42.15625 40.214844 42.082031 40.066406 41.933594 C 39.917969 41.789062 39.84375 41.609375 39.84375 41.402344 L 39.84375 10.761719 C 39.84375 10.554688 39.917969 10.378906 40.066406 10.230469 C 40.214844 10.085938 40.390625 10.011719 40.597656 10.011719 Z M 40.597656 10.011719 " fill-opacity="1" fill-rule="nonzero"/></g><path fill="#f1f1f1" d="M 11.257812 12.140625 C 9.613281 12.140625 9.492188 11.757812 9.492188 11.179688 C 9.492188 9.820312 12.480469 9.953125 13.003906 10.542969 C 13.140625 10.703125 13.3125 10.785156 13.519531 10.800781 C 13.730469 10.8125 13.910156 10.75 14.066406 10.613281 C 14.222656 10.472656 14.308594 10.300781 14.320312 10.089844 C 14.332031 9.882812 14.269531 9.703125 14.128906 9.546875 C 13.558594 9.027344 12.890625 8.738281 12.121094 8.675781 L 12.121094 7.835938 C 12.121094 7.628906 12.046875 7.449219 11.898438 7.304688 C 11.753906 7.15625 11.574219 7.082031 11.367188 7.082031 C 11.160156 7.082031 10.980469 7.15625 10.835938 7.304688 C 10.6875 7.449219 10.613281 7.628906 10.613281 7.835938 L 10.613281 8.671875 C 8.804688 8.90625 7.984375 9.960938 7.984375 11.179688 C 7.984375 13.644531 10.449219 13.644531 11.257812 13.644531 C 12.875 13.644531 13.246094 13.828125 13.246094 14.609375 C 13.246094 15.992188 10.191406 15.839844 9.691406 15.195312 C 9.566406 15.027344 9.398438 14.933594 9.191406 14.90625 C 8.984375 14.878906 8.800781 14.929688 8.636719 15.058594 C 8.472656 15.183594 8.375 15.351562 8.347656 15.558594 C 8.324219 15.765625 8.375 15.949219 8.5 16.113281 C 9.074219 16.722656 9.78125 17.058594 10.613281 17.121094 L 10.613281 17.953125 C 10.613281 18.160156 10.6875 18.335938 10.835938 18.484375 C 10.980469 18.628906 11.160156 18.703125 11.367188 18.703125 C 11.574219 18.703125 11.753906 18.628906 11.898438 18.484375 C 12.046875 18.335938 12.121094 18.160156 12.121094 17.953125 L 12.121094 17.121094 C 13.925781 16.875 14.75 15.808594 14.75 14.609375 C 14.75 12.140625 12.390625 12.140625 11.257812 12.140625 Z M 11.257812 12.140625 " fill-opacity="1" fill-rule="nonzero"/><g clip-path="url(#9c19c01b3c)"><path fill="#f1f1f1" d="M 46.476562 0.355469 L 41.214844 0.4375 C 41.007812 0.441406 40.832031 0.515625 40.6875 0.664062 C 40.542969 0.816406 40.472656 0.992188 40.472656 1.199219 C 40.480469 1.40625 40.558594 1.582031 40.707031 1.726562 C 40.855469 1.871094 41.03125 1.941406 41.238281 1.941406 L 44.363281 1.894531 L 32.058594 12.125 L 25.878906 4.972656 C 25.765625 4.84375 25.625 4.761719 25.457031 4.726562 C 25.289062 4.695312 25.125 4.714844 24.972656 4.792969 L 20.257812 7.15625 C 20.035156 6.804688 19.789062 6.464844 19.523438 6.140625 C 19.261719 5.816406 18.976562 5.511719 18.675781 5.21875 C 18.375 4.929688 18.058594 4.65625 17.726562 4.402344 C 17.394531 4.148438 17.046875 3.914062 16.6875 3.703125 C 16.328125 3.488281 15.957031 3.296875 15.574219 3.128906 C 15.191406 2.960938 14.800781 2.8125 14.398438 2.691406 C 14 2.566406 13.59375 2.46875 13.183594 2.390625 C 12.769531 2.316406 12.355469 2.265625 11.9375 2.238281 C 11.523438 2.210938 11.105469 2.207031 10.6875 2.230469 C 10.269531 2.253906 9.851562 2.296875 9.441406 2.371094 C 9.027344 2.441406 8.621094 2.535156 8.21875 2.65625 C 7.820312 2.773438 7.425781 2.914062 7.042969 3.078125 C 6.65625 3.246094 6.285156 3.433594 5.921875 3.640625 C 5.558594 3.847656 5.210938 4.078125 4.875 4.328125 C 4.539062 4.578125 4.21875 4.847656 3.914062 5.136719 C 3.609375 5.421875 3.324219 5.726562 3.054688 6.046875 C 2.789062 6.367188 2.539062 6.703125 2.3125 7.054688 C 2.082031 7.40625 1.875 7.769531 1.6875 8.144531 C 1.503906 8.515625 1.339844 8.902344 1.199219 9.296875 C 1.058594 9.691406 0.941406 10.089844 0.847656 10.5 C 0.753906 10.90625 0.683594 11.316406 0.636719 11.734375 C 0.589844 12.148438 0.570312 12.566406 0.574219 12.984375 C 0.578125 13.402344 0.605469 13.820312 0.660156 14.234375 C 0.710938 14.652344 0.789062 15.0625 0.890625 15.46875 C 0.988281 15.875 1.113281 16.273438 1.261719 16.664062 C 1.410156 17.054688 1.578125 17.4375 1.773438 17.808594 C 1.964844 18.179688 2.179688 18.539062 2.414062 18.882812 C 2.648438 19.230469 2.902344 19.5625 3.175781 19.878906 C 3.449219 20.195312 3.742188 20.496094 4.050781 20.777344 C 4.359375 21.058594 4.683594 21.320312 5.023438 21.566406 C 5.363281 21.808594 5.714844 22.035156 6.082031 22.234375 C 6.449219 22.4375 6.824219 22.617188 7.210938 22.777344 L 7.210938 41.40625 C 7.210938 41.613281 7.285156 41.792969 7.433594 41.9375 C 7.578125 42.085938 7.757812 42.160156 7.964844 42.160156 L 13.851562 42.160156 C 14.058594 42.160156 14.234375 42.085938 14.382812 41.9375 C 14.53125 41.789062 14.605469 41.613281 14.605469 41.40625 L 14.605469 23.03125 C 15.886719 22.613281 17.050781 21.96875 18.089844 21.105469 L 18.089844 41.40625 C 18.089844 41.613281 18.164062 41.789062 18.308594 41.9375 C 18.457031 42.085938 18.632812 42.160156 18.84375 42.160156 L 24.726562 42.160156 C 24.9375 42.160156 25.113281 42.085938 25.261719 41.9375 C 25.40625 41.792969 25.480469 41.613281 25.480469 41.40625 L 25.480469 14.835938 C 25.480469 14.628906 25.40625 14.449219 25.261719 14.304688 C 25.113281 14.15625 24.9375 14.082031 24.726562 14.082031 L 21.875 14.082031 C 21.921875 13.6875 21.941406 13.292969 21.941406 12.894531 C 21.941406 11.351562 21.621094 9.882812 20.976562 8.480469 L 25.121094 6.402344 L 31.402344 13.667969 C 31.535156 13.824219 31.703125 13.910156 31.910156 13.925781 C 32.113281 13.941406 32.292969 13.886719 32.453125 13.753906 L 45.734375 2.710938 L 45.734375 6.242188 C 45.734375 6.449219 45.808594 6.628906 45.957031 6.773438 C 46.101562 6.921875 46.28125 6.996094 46.488281 6.996094 C 46.695312 6.996094 46.875 6.921875 47.019531 6.773438 C 47.167969 6.628906 47.242188 6.449219 47.242188 6.242188 L 47.242188 1.105469 C 47.230469 0.902344 47.152344 0.726562 47.007812 0.582031 C 46.859375 0.433594 46.683594 0.359375 46.476562 0.355469 Z M 11.261719 22.070312 C 10.660156 22.070312 10.0625 22.011719 9.472656 21.894531 C 8.878906 21.777344 8.304688 21.601562 7.75 21.371094 C 7.191406 21.140625 6.664062 20.859375 6.160156 20.523438 C 5.660156 20.1875 5.195312 19.808594 4.769531 19.382812 C 4.34375 18.957031 3.960938 18.492188 3.628906 17.992188 C 3.292969 17.492188 3.007812 16.960938 2.777344 16.40625 C 2.546875 15.847656 2.375 15.273438 2.257812 14.683594 C 2.136719 14.089844 2.078125 13.496094 2.078125 12.890625 C 2.078125 12.289062 2.136719 11.691406 2.253906 11.101562 C 2.375 10.507812 2.546875 9.933594 2.777344 9.378906 C 3.007812 8.820312 3.292969 8.292969 3.625 7.792969 C 3.960938 7.289062 4.339844 6.824219 4.769531 6.398438 C 5.195312 5.972656 5.65625 5.59375 6.160156 5.257812 C 6.660156 4.921875 7.1875 4.640625 7.746094 4.410156 C 8.304688 4.179688 8.878906 4.003906 9.46875 3.886719 C 10.058594 3.769531 10.65625 3.710938 11.257812 3.710938 C 11.863281 3.710938 12.460938 3.769531 13.050781 3.886719 C 13.640625 4.003906 14.214844 4.179688 14.773438 4.410156 C 15.328125 4.640625 15.859375 4.925781 16.359375 5.257812 C 16.859375 5.59375 17.324219 5.976562 17.75 6.402344 C 18.175781 6.828125 18.558594 7.292969 18.890625 7.792969 C 19.226562 8.292969 19.507812 8.824219 19.738281 9.378906 C 19.96875 9.9375 20.144531 10.511719 20.261719 11.101562 C 20.378906 11.695312 20.4375 12.292969 20.4375 12.894531 C 20.4375 13.496094 20.378906 14.09375 20.257812 14.683594 C 20.140625 15.273438 19.964844 15.847656 19.734375 16.402344 C 19.503906 16.960938 19.222656 17.488281 18.886719 17.988281 C 18.550781 18.488281 18.171875 18.953125 17.746094 19.378906 C 17.320312 19.804688 16.855469 20.183594 16.355469 20.519531 C 15.855469 20.855469 15.328125 21.136719 14.769531 21.367188 C 14.214844 21.597656 13.640625 21.773438 13.050781 21.890625 C 12.460938 22.007812 11.863281 22.070312 11.261719 22.070312 Z M 11.261719 22.070312 " fill-opacity="1" fill-rule="nonzero"/></g><g clip-path="url(#ae9c446f6c)"><path fill="#f1f1f1" d="M 29.71875 16.488281 L 35.609375 16.488281 C 35.816406 16.488281 35.992188 16.5625 36.140625 16.710938 C 36.289062 16.855469 36.359375 17.035156 36.359375 17.242188 L 36.359375 41.402344 C 36.359375 41.609375 36.289062 41.785156 36.140625 41.933594 C 35.992188 42.082031 35.816406 42.15625 35.609375 42.15625 L 29.71875 42.15625 C 29.511719 42.15625 29.332031 42.082031 29.1875 41.933594 C 29.039062 41.785156 28.964844 41.609375 28.964844 41.402344 L 28.964844 17.242188 C 28.964844 17.035156 29.039062 16.855469 29.1875 16.710938 C 29.332031 16.5625 29.511719 16.488281 29.71875 16.488281 Z M 29.71875 16.488281 " fill-opacity="1" fill-rule="nonzero"/></g><g clip-path="url(#fa6ae4beca)"><path fill="#f1f1f1" d="M 40.597656 10.011719 L 46.488281 10.011719 C 46.695312 10.011719 46.875 10.085938 47.019531 10.230469 C 47.167969 10.378906 47.242188 10.554688 47.242188 10.761719 L 47.242188 41.402344 C 47.242188 41.609375 47.167969 41.789062 47.019531 41.933594 C 46.875 42.082031 46.695312 42.15625 46.488281 42.15625 L 40.597656 42.15625 C 40.390625 42.15625 40.214844 42.082031 40.066406 41.933594 C 39.917969 41.789062 39.84375 41.609375 39.84375 41.402344 L 39.84375 10.761719 C 39.84375 10.554688 39.917969 10.378906 40.066406 10.230469 C 40.214844 10.085938 40.390625 10.011719 40.597656 10.011719 Z M 40.597656 10.011719 " fill-opacity="1" fill-rule="nonzero"/></g><path fill="#f1f1f1" d="M 11.257812 12.140625 C 9.613281 12.140625 9.492188 11.757812 9.492188 11.179688 C 9.492188 9.820312 12.480469 9.953125 13.003906 10.542969 C 13.140625 10.703125 13.3125 10.785156 13.519531 10.800781 C 13.730469 10.8125 13.910156 10.75 14.066406 10.613281 C 14.222656 10.472656 14.308594 10.300781 14.320312 10.089844 C 14.332031 9.882812 14.269531 9.703125 14.128906 9.546875 C 13.558594 9.027344 12.890625 8.738281 12.121094 8.675781 L 12.121094 7.835938 C 12.121094 7.628906 12.046875 7.449219 11.898438 7.304688 C 11.753906 7.15625 11.574219 7.082031 11.367188 7.082031 C 11.160156 7.082031 10.980469 7.15625 10.835938 7.304688 C 10.6875 7.449219 10.613281 7.628906 10.613281 7.835938 L 10.613281 8.671875 C 8.804688 8.90625 7.984375 9.960938 7.984375 11.179688 C 7.984375 13.644531 10.449219 13.644531 11.257812 13.644531 C 12.875 13.644531 13.246094 13.828125 13.246094 14.609375 C 13.246094 15.992188 10.191406 15.839844 9.691406 15.195312 C 9.566406 15.027344 9.398438 14.933594 9.191406 14.90625 C 8.984375 14.878906 8.800781 14.929688 8.636719 15.058594 C 8.472656 15.183594 8.375 15.351562 8.347656 15.558594 C 8.324219 15.765625 8.375 15.949219 8.5 16.113281 C 9.074219 16.722656 9.78125 17.058594 10.613281 17.121094 L 10.613281 17.953125 C 10.613281 18.160156 10.6875 18.335938 10.835938 18.484375 C 10.980469 18.628906 11.160156 18.703125 11.367188 18.703125 C 11.574219 18.703125 11.753906 18.628906 11.898438 18.484375 C 12.046875 18.335938 12.121094 18.160156 12.121094 17.953125 L 12.121094 17.121094 C 13.925781 16.875 14.75 15.808594 14.75 14.609375 C 14.75 12.140625 12.390625 12.140625 11.257812 12.140625 Z M 11.257812 12.140625 " fill-opacity="1" fill-rule="nonzero"/></svg>